<?xml version="1.0" encoding="UTF-8" standalone="no"?>
<!-- Created with Inkscape (http://www.inkscape.org/) -->

<svg
   width="1024"
   height="1024"
   viewBox="0 0 270.93333 270.93333"
   version="1.1"
   id="svg1"
   inkscape:version="1.4 (e7c3feb100, 2024-10-09)"
   sodipodi:docname="com.github.dzheremi.lrcmake.svg"
   xml:space="preserve"
   xmlns:inkscape="http://www.inkscape.org/namespaces/inkscape"
   xmlns:sodipodi="http://sodipodi.sourceforge.net/DTD/sodipodi-0.dtd"
   xmlns="http://www.w3.org/2000/svg"
   xmlns:svg="http://www.w3.org/2000/svg"><sodipodi:namedview
     id="namedview1"
     pagecolor="#ffffff"
     bordercolor="#000000"
     borderopacity="0.25"
     inkscape:showpageshadow="2"
     inkscape:pageopacity="0.0"
     inkscape:pagecheckerboard="0"
     inkscape:deskcolor="#d1d1d1"
     inkscape:document-units="mm"
     showgrid="true"
     inkscape:zoom="0.053033009"
     inkscape:cx="-2055.3237"
     inkscape:cy="1791.3372"
     inkscape:window-width="1920"
     inkscape:window-height="1011"
     inkscape:window-x="0"
     inkscape:window-y="0"
     inkscape:window-maximized="1"
     inkscape:current-layer="layer1"><sodipodi:guide
       position="0,270.93333"
       orientation="0,1024"
       id="guide1"
       inkscape:locked="false" /><sodipodi:guide
       position="270.93333,270.93333"
       orientation="1024,0"
       id="guide2"
       inkscape:locked="false" /><sodipodi:guide
       position="270.93333,0"
       orientation="0,-1024"
       id="guide3"
       inkscape:locked="false" /><sodipodi:guide
       position="0,0"
       orientation="-1024,0"
       id="guide4"
       inkscape:locked="false" /><inkscape:grid
       id="grid4"
       units="mm"
       originx="0"
       originy="0"
       spacingx="0.99999999"
       spacingy="0.99999999"
       empcolor="#0099e5"
       empopacity="0.30196078"
       color="#0099e5"
       opacity="0.14902"
       empspacing="5"
       enabled="true"
       visible="true" /></sodipodi:namedview><defs
     id="defs1"><inkscape:path-effect
       effect="perspective-envelope"
       up_left_point="79.361624,111.4743"
       up_right_point="177.10401,110.15593"
       down_left_point="79.624137,170.82461"
       down_right_point="176.96889,170.82461"
       id="path-effect1"
       is_visible="true"
       lpeversion="1"
       deform_type="perspective"
       horizontal_mirror="false"
       vertical_mirror="false"
       overflow_perspective="false" /><inkscape:path-effect
       effect="perspective-envelope"
       up_left_point="155.57788,-35.351231"
       up_right_point="251.03808,-59.459278"
       down_left_point="132.11952,59.459278"
       down_right_point="227.02103,36.065698"
       id="path-effect155"
       is_visible="true"
       lpeversion="1"
       deform_type="perspective"
       horizontal_mirror="false"
       vertical_mirror="false"
       overflow_perspective="false" /><inkscape:path-effect
       effect="perspective-envelope"
       up_left_point="41.308098,56.076716"
       up_right_point="200.7469,56.076716"
       down_left_point="41.308098,190.43328"
       down_right_point="200.7469,190.43328"
       id="path-effect150"
       is_visible="true"
       lpeversion="1"
       deform_type="perspective"
       horizontal_mirror="false"
       vertical_mirror="false"
       overflow_perspective="false" /><inkscape:path-effect
       effect="perspective-envelope"
       up_left_point="41.308098,56.076716"
       up_right_point="200.7469,56.076716"
       down_left_point="41.308098,190.43328"
       down_right_point="200.7469,190.43328"
       id="path-effect148"
       is_visible="true"
       lpeversion="1"
       deform_type="perspective"
       horizontal_mirror="false"
       vertical_mirror="false"
       overflow_perspective="false" /><inkscape:path-effect
       effect="fillet_chamfer"
       id="path-effect147"
       is_visible="true"
       lpeversion="1"
       nodesatellites_param="F,0,0,1,0,0,0,1 @ F,0,0,1,0,0,0,1 @ F,0,0,1,0,0,0,1 @ F,0,0,1,0,0,0,1 @ F,0,0,1,0,0,0,1"
       radius="0"
       unit="px"
       method="auto"
       mode="F"
       chamfer_steps="1"
       flexible="false"
       use_knot_distance="true"
       apply_no_radius="true"
       apply_with_radius="true"
       only_selected="false"
       hide_knots="false" /><inkscape:path-effect
       effect="perspective-envelope"
       up_left_point="140.47244,-64.616161"
       up_right_point="251.69813,-89.029907"
       down_left_point="117.30563,45.362594"
       down_right_point="222.38671,17.304143"
       id="path-effect2"
       is_visible="true"
       lpeversion="1"
       deform_type="perspective"
       horizontal_mirror="false"
       vertical_mirror="false"
       overflow_perspective="false" /><inkscape:path-effect
       effect="perspective-envelope"
       up_left_point="140.47244,-64.616161"
       up_right_point="251.69813,-89.029907"
       down_left_point="117.30563,45.362594"
       down_right_point="222.38671,17.304143"
       id="path-effect6"
       is_visible="true"
       lpeversion="1"
       deform_type="perspective"
       horizontal_mirror="false"
       vertical_mirror="false"
       overflow_perspective="false" /><inkscape:path-effect
       effect="perspective-envelope"
       up_left_point="140.47244,-64.616161"
       up_right_point="250.21313,-89.029907"
       down_left_point="117.30563,45.362594"
       down_right_point="237.90298,31.714399"
       id="path-effect4"
       is_visible="true"
       lpeversion="1"
       deform_type="perspective"
       horizontal_mirror="false"
       vertical_mirror="false"
       overflow_perspective="false" /><inkscape:path-effect
       effect="perspective-envelope"
       up_left_point="155.57788,-35.351231"
       up_right_point="251.03808,-59.459278"
       down_left_point="132.11952,59.459278"
       down_right_point="227.02103,36.065698"
       id="path-effect155-7"
       is_visible="true"
       lpeversion="1"
       deform_type="perspective"
       horizontal_mirror="false"
       vertical_mirror="false"
       overflow_perspective="false" /><style
       type="text/css"
       id="current-color-scheme">
      .ColorScheme-Text {
        color:#232629;
      }
      </style></defs><g
     inkscape:label="Слой 1"
     inkscape:groupmode="layer"
     id="layer1" /><g
     id="g213"
     transform="matrix(1.5390151,0,0,1.5390151,-72.927658,-109.30134)"><path
       d="m 144.843,133.659 64.763,38.648 c 5.51,3.288 5.52,8.586 0.022,11.875 l -64.75,38.732 c -5.459,3.266 -14.244,3.239 -19.695,-0.056 L 61.1097,184.126 c -5.3928,-3.26 -5.3848,-8.504 0.0166,-11.763 l 64.0597,-38.648 c 5.44,-3.281 14.206,-3.308 19.657,-0.055 z"
       style="fill:#09008a;fill-opacity:1;stroke:none;stroke-width:0px;stroke-opacity:0"
       id="path204" /><path
       d="m 144.843,129.382 64.763,38.647 c 5.51,3.288 5.52,8.586 0.022,11.875 l -64.75,38.733 c -5.459,3.265 -14.244,3.238 -19.695,-0.056 L 61.1097,179.849 c -5.3928,-3.26 -5.3848,-8.505 0.0166,-11.764 l 64.0597,-38.647 c 5.44,-3.282 14.206,-3.309 19.657,-0.056 z"
       style="fill:#090090;fill-opacity:1;stroke:none;stroke-width:0px;stroke-opacity:0"
       id="path205" /><path
       d="m 144.843,125.104 64.763,38.647 c 5.51,3.288 5.52,8.586 0.022,11.875 l -64.75,38.733 c -5.459,3.266 -14.244,3.239 -19.695,-0.056 L 61.1097,175.571 c -5.3928,-3.26 -5.3848,-8.505 0.0166,-11.763 L 125.186,125.16 c 5.44,-3.282 14.206,-3.308 19.657,-0.056 z"
       style="fill:#0a0096;fill-opacity:1;stroke:none;stroke-width:0px;stroke-opacity:0"
       id="path206" /><path
       d="m 144.843,120.826 64.763,38.648 c 5.51,3.288 5.52,8.586 0.022,11.875 l -64.75,38.732 c -5.459,3.266 -14.244,3.239 -19.695,-0.056 L 61.1097,171.293 c -5.3928,-3.26 -5.3848,-8.504 0.0166,-11.763 l 64.0597,-38.648 c 5.44,-3.282 14.206,-3.308 19.657,-0.055 z"
       style="fill:#0a009b;fill-opacity:1;stroke:none;stroke-width:0px;stroke-opacity:0"
       id="path207" /><path
       d="m 144.843,116.549 64.763,38.647 c 5.51,3.288 5.52,8.586 0.022,11.875 l -64.75,38.732 c -5.459,3.266 -14.244,3.239 -19.695,-0.056 L 61.1097,167.015 c -5.3928,-3.26 -5.3848,-8.504 0.0166,-11.763 l 64.0597,-38.647 c 5.44,-3.282 14.206,-3.309 19.657,-0.056 z"
       style="fill:#0b00a1;fill-opacity:1;stroke:none;stroke-width:0px;stroke-opacity:0"
       id="path208" /><path
       d="m 144.843,112.271 64.763,38.647 c 5.51,3.288 5.52,8.586 0.022,11.875 l -64.75,38.733 c -5.459,3.265 -14.244,3.239 -19.695,-0.056 L 61.1097,162.738 c -5.3928,-3.26 -5.3848,-8.505 0.0166,-11.764 l 64.0597,-38.647 c 5.44,-3.282 14.206,-3.309 19.657,-0.056 z"
       style="fill:#0b00a7;fill-opacity:1;stroke:none;stroke-width:0px;stroke-opacity:0"
       id="path209" /><path
       d="m 144.843,107.993 64.763,38.648 c 5.51,3.288 5.52,8.586 0.022,11.875 l -64.75,38.732 c -5.459,3.266 -14.244,3.239 -19.695,-0.056 L 61.1097,158.46 c -5.3928,-3.26 -5.3848,-8.505 0.0166,-11.763 l 64.0597,-38.648 c 5.44,-3.282 14.206,-3.308 19.657,-0.056 z"
       style="fill:#0c00ad;fill-opacity:1;stroke:none;stroke-width:0px;stroke-opacity:0"
       id="path210" /><path
       d="m 144.843,103.716 64.763,38.647 c 5.51,3.288 5.52,8.586 0.022,11.875 l -64.75,38.732 c -5.459,3.266 -14.244,3.239 -19.695,-0.056 L 61.1097,154.182 c -5.3928,-3.26 -5.3848,-8.504 0.0166,-11.763 l 64.0597,-38.648 c 5.44,-3.281 14.206,-3.308 19.657,-0.055 z"
       style="fill:#0c00b2;fill-opacity:0.59176153;stroke:none;stroke-width:0px;stroke-opacity:0"
       id="path211" /><path
       d="m 144.843,99.4379 64.763,38.6471 c 5.51,3.288 5.52,8.586 0.022,11.875 l -64.75,38.732 c -5.459,3.266 -14.244,3.239 -19.695,-0.056 L 61.1097,149.904 c -5.3928,-3.259 -5.3848,-8.504 0.0166,-11.763 L 125.186,99.4937 c 5.44,-3.2818 14.206,-3.3085 19.657,-0.0558 z"
       style="fill:#0d00b8;fill-opacity:0.5544312;stroke:none;stroke-width:0px;stroke-opacity:0"
       id="path212" /><path
       d="m 144.843,95.1602 64.763,38.6478 c 5.51,3.288 5.52,8.586 0.022,11.875 l -64.75,38.732 c -5.459,3.265 -14.244,3.239 -19.695,-0.056 L 61.1097,145.627 c -5.3928,-3.26 -5.3848,-8.505 0.0166,-11.763 L 125.186,95.2159 c 5.44,-3.2818 14.206,-3.3085 19.657,-0.0557 z"
       style="fill:#0d00be;fill-opacity:0.69101739;stroke:none;stroke-width:0.387664;stroke-dasharray:none;stroke-opacity:1"
       id="path213" /><path
       style="fill:#dcdcdc;fill-opacity:1;stroke:none;stroke-width:6.94196"
       d="m 128.11246,110.81674 -4.91941,2.99623 39.65918,23.09682 5.00767,-2.98775 z m 39.73812,29.004 -5.00566,2.9788 -27.29742,16.24434 c -0.51104,-2.13856 -2.1414,-4.17978 -4.9294,-5.82147 -6.80998,-4.01 -17.72499,-3.95691 -24.46661,0.0967 -6.717446,4.0391 -6.697638,10.49502 0.0379,14.49724 6.7523,4.01221 17.65055,4.01467 24.44245,-0.0166 l 32.20566,-19.11536 9.99759,5.84398 c 5.56956,-3.28855 5.58178,-8.55409 0.0228,-11.79152 z m -54.45794,-20.03871 -4.88107,2.97288 34.44056,20.16893 4.95732,-2.96539 z m -14.60523,8.89551 -4.843173,2.9498 24.393923,14.36413 4.89687,-2.94443 z m -14.491996,8.82654 -4.805711,2.92698 19.369751,11.46803 4.848166,-2.92266 z"
       class="ColorScheme-Text"
       id="path1"
       inkscape:path-effect="#path-effect1"
       inkscape:original-d="m 128.71131,70.005739 -4.90871,4.908711 39.26961,39.26962 4.90872,-4.90871 z m 39.26974,49.087171 -4.90873,4.90873 -26.99794,26.99794 c -0.50761,-3.59811 -2.13037,-7.0391 -4.9088,-9.81753 -6.79861,-6.79862 -17.74506,-6.7986 -24.54363,-2e-5 -6.798584,6.79857 -6.798576,17.745 4e-5,24.54361 6.79862,6.79862 17.74502,6.79861 24.5436,3e-5 l 31.90667,-31.90667 9.8175,9.81751 c 5.43886,-5.43886 5.43885,-14.19605 -6e-5,-19.63495 z m -53.9959,-34.361018 -4.90871,4.908712 34.36097,34.360966 4.90871,-4.90871 z m -14.726144,14.726153 -4.908711,4.908705 24.543465,24.54347 4.9087,-4.90871 z m -14.726163,14.726155 -4.908706,4.90871 19.634809,19.63481 4.908714,-4.90871 z"
       transform="matrix(0.73259387,0,0,0.73259387,41.449353,38.021893)" /></g></svg>
